# xmcd
#
# Track frame offsets: 
#        150
#        15906
#        27535
#        43461
#        57866
#        78112
#        95980
#        112632
#        123758
#        139336
#        159850
#        165153
#        189632
#        202111
#        213577
#        232969
#        250003
#        269646
#        288316
#        309596
#
# Disc length: 4339 seconds
#
# Revision: 0
# Processed by: cddbd v1.5.2PL0 Copyright (c) Steve Scherf et al.
# Submitted via: ExactAudioCopy v0.99pb4
#
DISCID=1210f114
DTITLE=Various Artist - Las 100 De Los Músicos, Poetas Y Locos CD 4
DYEAR=2008
DGENRE=Rock
TTITLE0=Enanitos Verdes - Mejor No Hablemos De Amor
TTITLE1=Orquesta Mondragón - Bon Voyage
TTITLE2=Radio Kaos - Let's Rock
TTITLE3=Tiro De Gracia - El Juego Verdadero
TTITLE4=Azul Violeta - Tu Luz
TTITLE5=Enrique Bunbury - El Viento A Favor
TTITLE6=Enanitos Verdes - Lamento Boliviano
TTITLE7=Orquesta Mondragón - Caperucita Feroz
TTITLE8=Lucybell - Cuando Respiro En Tu Boca
TTITLE9=El Gran Silencio - Canción Para Un O.G.T.
TTITLE10=Miguel Ríos - Tutti Frutti
TTITLE11=Héroes Del Silencio - La Chispa Adecuada
TTITLE12=Los Pericos - Waitin'
TTITLE13=Víctimas Del Doctor Cerebro - La Tamalera
TTITLE14=Enrique Bunbury - Y Al Final
TTITLE15=Tiro De Gracia - Chupacabras
TTITLE16=Jarabe De Palo - Depende
TTITLE17=Héroes Del Silencio - Héroe De Leyenda
TTITLE18=Orquesta Mondragón - Corazón De Neón
TTITLE19=Radio Kaos - Bailando
EXTD=
EXTT0=
EXTT1=
EXTT2=
EXTT3=
EXTT4=
EXTT5=
EXTT6=
EXTT7=
EXTT8=
EXTT9=
EXTT10=
EXTT11=
EXTT12=
EXTT13=
EXTT14=
EXTT15=
EXTT16=
EXTT17=
EXTT18=
EXTT19=
PLAYORDER=
